<?xml version="1.0" encoding="UTF-8"?>
<svg version="1.1" xmlns="http://www.w3.org/2000/svg" width="500" height="500">
<path d="M0 0 C165 0 330 0 500 0 C500 165 500 330 500 500 C335 500 170 500 0 500 C0 335 0 170 0 0 Z " fill="#FEFEFE" transform="translate(0,0)"/>
<path d="M0 0 C34.65 0 69.3 0 105 0 C103.81292643 7.71597823 102.63786336 15.20653889 100.8984375 22.77734375 C100.70099945 23.65468674 100.5035614 24.53202972 100.30014038 25.43595886 C99.87940447 27.30465173 99.45685598 29.17293732 99.03259277 31.04083252 C97.89963487 36.03146267 96.78164932 41.02543998 95.6640625 46.01953125 C95.43799316 47.0289679 95.21192383 48.03840454 94.97900391 49.07843018 C92.82108804 58.74373847 90.7707031 68.43021789 88.75 78.125 C86.49949842 88.91029159 84.21523402 99.6847785 81.8125 110.4375 C81.57490967 111.50597168 81.33731934 112.57444336 81.0925293 113.67529297 C79.9139806 118.96256986 78.71276614 124.24360711 77.484375 129.51953125 C77.01033733 131.59633606 76.53637563 133.67315821 76.0625 135.75 C75.83860596 136.68513428 75.61471191 137.62026855 75.3840332 138.58374023 C73.72049278 145.94658506 74.14943075 150.87357687 77 158 C46.97 158 16.94 158 -14 158 C-8.35538784 129.77693918 -8.35538784 129.77693918 -5.66131592 118.3288269 C-2.35698991 104.26724479 0.68900896 90.15949657 3.62789917 76.01754761 C5.96848281 64.76226871 8.41238071 53.54418743 11.09814453 42.36499023 C11.53968004 40.50706117 11.96658971 38.64557948 12.37695312 36.78051758 C12.81525627 34.82446958 13.3030179 32.87917405 13.82617188 30.9440918 C15.22681848 25.18006525 15.22681848 25.18006525 13.96826172 19.54101562 C12.36893872 17.20793314 10.65651538 15.15105432 8.75 13.0625 C7.53194081 11.64057617 6.31824384 10.21490157 5.109375 8.78515625 C4.56249023 8.17551025 4.01560547 7.56586426 3.45214844 6.93774414 C2 5 2 5 0 0 Z " fill="#030303" transform="translate(157,145)"/>
<path d="M0 0 C12.69116133 -0.11581875 25.38219705 -0.20467765 38.07377911 -0.25906086 C43.96693772 -0.28516136 49.85973494 -0.32056862 55.75268555 -0.37719727 C61.43908556 -0.43149947 67.12513784 -0.46141712 72.81177711 -0.47438622 C74.98195687 -0.48362921 77.15211745 -0.50167862 79.32214928 -0.52865028 C82.3606119 -0.56491594 85.39763528 -0.56994627 88.4362793 -0.56762695 C89.33467529 -0.58560333 90.23307129 -0.60357971 91.15869141 -0.62210083 C95.68045947 -0.58472134 97.41062969 -0.48019353 101.03523254 2.47297668 C101.6836058 3.30689438 102.33197906 4.14081207 103 5 C103.33 5.33 103.66 5.66 104 6 C104.51923552 11.96535245 103.71762826 17.57863658 102.390625 23.375 C102.1385025 24.52730103 102.1385025 24.52730103 101.88128662 25.70288086 C101.34628641 28.13728899 100.79829983 30.56855711 100.25 33 C99.89760211 34.59747219 99.5460342 36.19512771 99.1953125 37.79296875 C96.89641919 48.21866558 94.47023149 58.61372388 92 69 C84.2407486 64.90486585 76.80364126 60.44970281 69.4375 55.6875 C67.49919658 54.44063072 65.56041915 53.19449789 63.62109375 51.94921875 C62.7798999 51.40612061 61.93870605 50.86302246 61.07202148 50.3034668 C59.04946341 48.98401342 59.04946341 48.98401342 57 48 C58 42 59 36 60 30 C50.76 30 41.52 30 32 30 C31.505 34.95 31.505 34.95 31 40 C30.58492009 42.3043062 30.12717938 44.60154334 29.6171875 46.88671875 C29.34052246 48.13912354 29.06385742 49.39152832 28.77880859 50.68188477 C28.4776718 52.01711979 28.17639873 53.35232408 27.875 54.6875 C27.56154245 56.09616845 27.24856337 57.50494344 26.93603516 58.91381836 C25.96577192 63.27778474 24.98394698 67.6391016 24 72 C23.68878863 73.38118186 23.37759046 74.7623667 23.06640625 76.14355469 C21.88107098 81.40141102 20.69338437 86.65872648 19.5012207 91.91503906 C16.92980365 103.2618107 14.45299013 114.62704577 12 126 C21.24 126 30.48 126 40 126 C40.66 122.04 41.32 118.08 42 114 C42.61624344 110.75910841 43.25061831 107.53725782 43.9375 104.3125 C44.09412109 103.51650391 44.25074219 102.72050781 44.41210938 101.90039062 C44.83898876 99.90885375 45.40797594 97.94883366 46 96 C49 95 49 95 51.09375 95.96875 C51.8878125 96.4740625 52.681875 96.979375 53.5 97.5 C54.38276611 98.05469971 55.26553223 98.60939941 56.17504883 99.1809082 C57.10728271 99.7812085 58.0395166 100.38150879 59 101 C59.94447998 101.59707764 60.88895996 102.19415527 61.86206055 102.80932617 C64.58065747 104.53041021 67.29087888 106.26405324 70 108 C71.27666111 108.80967112 72.55389329 109.61844349 73.83203125 110.42578125 C76.22709079 111.94191986 78.61538875 113.46753704 81 115 C80.45868875 123.13250156 78.8340703 130.88360645 77 138.8125 C76.45800905 141.19393664 75.91633007 143.5754443 75.375 145.95703125 C75.13523437 146.99835205 74.89546875 148.03967285 74.6484375 149.11254883 C74.05940944 151.73545351 73.52232096 154.36319153 73 157 C60.45645859 157.09270102 47.91299876 157.16376579 35.36918449 157.20724869 C29.54450247 157.22811886 23.7200549 157.25642663 17.89550781 157.30175781 C12.27395449 157.3452351 6.65262661 157.3691414 1.03091812 157.37950897 C-1.11329573 157.38689689 -3.25749732 157.40132377 -5.40161514 157.42292023 C-8.40619777 157.45197867 -11.40985012 157.45595491 -14.41455078 157.45410156 C-15.30000076 157.46848267 -16.18545074 157.48286377 -17.09773254 157.49768066 C-22.5552393 157.46128062 -25.67033888 156.64222574 -30 153 C-33.26673743 148.4409332 -31.78906915 143.23525114 -31 138 C-30.22476417 134.01015591 -29.28254242 130.07147639 -28.3125 126.125 C-26.04302503 116.61298749 -23.9437119 107.08384677 -22 97.5 C-19.97723457 87.56530594 -17.79709799 77.6855911 -15.46533203 67.81933594 C-13.79606338 60.66717005 -12.25105666 53.49624415 -10.76171875 46.3046875 C-10.5653331 45.35741791 -10.36894745 44.41014832 -10.16661072 43.43417358 C-9.18504128 38.69068394 -8.21125401 33.94573381 -7.24682617 29.19873047 C-6.88081634 27.41892069 -6.51469144 25.63913456 -6.1484375 23.859375 C-5.99126755 23.07360077 -5.8340976 22.28782654 -5.67216492 21.47824097 C-4.16805438 14.20877385 -2.09503485 7.1170566 0 0 Z " fill="#1992C8" transform="translate(268,146)"/>
<path d="M0 0 C10.23 0 20.46 0 31 0 C30.67 2.64 30.34 5.28 30 8 C30.020625 8.93585938 30.04125 9.87171875 30.0625 10.8359375 C29.98170396 14.11827665 29.54337934 16.07290126 28 19 C23.7421946 22.74535661 18.45830265 25.16171535 13.44140625 27.72216797 C9.34746997 29.86493422 5.40276328 32.25513727 1.4375 34.625 C-0.00063295 35.47249067 -1.43937308 36.3189524 -2.87890625 37.1640625 C-3.90886719 37.76992187 -4.93882812 38.37578125 -6 39 C-3.62564486 49.43200716 -1.05598707 59.74293703 2 70 C2.91523438 69.566875 3.83046875 69.13375 4.7734375 68.6875 C5.96195313 68.130625 7.15046875 67.57375 8.375 67 C9.55835938 66.443125 10.74171875 65.88625 11.9609375 65.3125 C15 64 15 64 17 64 C16.46515992 71.39439244 15.1536949 78.42104278 13.4375 85.625 C12.2309375 90.760625 12.2309375 90.760625 11 96 C0.77 96 -9.46 96 -20 96 C-19.32474443 90.59795543 -18.57313124 85.79536618 -17.30078125 80.5703125 C-16.97491618 79.18382729 -16.65007783 77.79710045 -16.32617188 76.41015625 C-15.82221018 74.26642031 -15.31246966 72.12487702 -14.78491211 69.98681641 C-12.7191007 61.57069105 -11.24835344 54.48045132 -14 46 C-14.28101563 44.88367188 -14.56203125 43.76734375 -14.8515625 42.6171875 C-15.23441406 41.25980469 -15.23441406 41.25980469 -15.625 39.875 C-16.08333333 38.25 -16.54166667 36.625 -17 35 C-16.24871826 34.66218506 -15.49743652 34.32437012 -14.72338867 33.97631836 C-10.10340998 31.54667462 -6.75825118 29.65173346 -4.52978516 24.79736328 C-3.57758577 21.05096347 -2.8951977 17.38539348 -2.3125 13.5625 C-1.549375 9.086875 -0.78625 4.61125 0 0 Z " fill="#FAFAFA" transform="translate(210,176)"/>
<path d="M0 0 C10.625 -0.25 10.625 -0.25 14 2 C14.13288395 4.74626822 14.1388213 7.27498923 14 10 C14 11.32 14 12.64 14 14 C14.06058594 13.07316406 14.12117187 12.14632813 14.18359375 11.19140625 C14.26738281 9.99386719 14.35117188 8.79632813 14.4375 7.5625 C14.51871094 6.36753906 14.59992188 5.17257812 14.68359375 3.94140625 C15 1 15 1 16 0 C17.65 0 19.3 0 21 0 C21 5.94 21 11.88 21 18 C19.02 18 17.04 18 15 18 C15 17.34 15 16.68 15 16 C13.35 16.66 11.7 17.32 10 18 C9.34 16.68 8.68 15.36 8 14 C7.34 14 6.68 14 6 14 C5.67 15.32 5.34 16.64 5 18 C3.35 18 1.7 18 0 18 C0 12.06 0 6.12 0 0 Z " fill="#252525" transform="translate(155,319)"/>
<path d="M0 0 C2.13501503 1.56957726 2.88491508 2.48787212 3.46875 5.0859375 C3.53004233 9.57560094 3.4994597 11.38528037 0.5625 15 C-0.283125 15.66 -1.12875 16.32 -2 17 C-2.33 17.33 -2.66 17.66 -3 18 C-6.21701789 18.28595715 -8.31097361 18.38555628 -11.1640625 16.7890625 C-13 15 -13 15 -13.56640625 12.6953125 C-13.55964199 8.24442741 -13.44829851 5.70046642 -11 1.875 C-6.87482448 -0.7032347 -4.80963881 -0.62059856 0 0 Z " fill="#2095CA" transform="translate(286,319)"/>
<path d="M0 0 C0.88429687 -0.01417969 1.76859375 -0.02835937 2.6796875 -0.04296875 C5.125 0.1875 5.125 0.1875 8.125 2.1875 C7.91875 3.13625 7.7125 4.085 7.5 5.0625 C7.37625 6.09375 7.2525 7.125 7.125 8.1875 C7.785 8.8475 8.445 9.5075 9.125 10.1875 C9.1875 12.625 9.1875 12.625 8.125 15.1875 C3.20636035 18.040311 -0.15125257 18.31789712 -5.875 18.1875 C-5.90184312 15.37493719 -5.92176188 12.56262759 -5.9375 9.75 C-5.94587891 8.94755859 -5.95425781 8.14511719 -5.96289062 7.31835938 C-5.9715143 5.27454779 -5.9272815 3.23066098 -5.875 1.1875 C-4.21846314 -0.46903686 -2.26849204 0.01643835 0 0 Z " fill="#1D1D1D" transform="translate(144.875,318.8125)"/>
<path d="M0 0 C1.2065625 0.0309375 1.2065625 0.0309375 2.4375 0.0625 C2.4375 2.7025 2.4375 5.3425 2.4375 8.0625 C3.0975 8.0625 3.7575 8.0625 4.4375 8.0625 C4.4375 5.4225 4.4375 2.7825 4.4375 0.0625 C6.4175 0.0625 8.3975 0.0625 10.4375 0.0625 C10.4375 5.6725 10.4375 11.2825 10.4375 17.0625 C8.7875 17.0625 7.1375 17.0625 5.4375 17.0625 C5.4375 15.7425 5.4375 14.4225 5.4375 13.0625 C4.4475 13.0625 3.4575 13.0625 2.4375 13.0625 C2.4375 14.7125 2.4375 16.3625 2.4375 18.0625 C0.4575 18.0625 -1.5225 18.0625 -3.5625 18.0625 C-3.58934312 15.24993719 -3.60926188 12.43762759 -3.625 9.625 C-3.63337891 8.82255859 -3.64175781 8.02011719 -3.65039062 7.19335938 C-3.6590143 5.14954779 -3.6147815 3.10566098 -3.5625 1.0625 C-2.5625 0.0625 -2.5625 0.0625 0 0 Z " fill="#0F0F0F" transform="translate(198.5625,318.9375)"/>
<path d="M0 0 C0.66 0.33 1.32 0.66 2 1 C1.4375 2.875 1.4375 2.875 0 5 C-3.625 6.25 -3.625 6.25 -7 7 C-6.67 8.65 -6.34 10.3 -6 12 C-5.34 12 -4.68 12 -4 12 C-4.66 11.67 -5.32 11.34 -6 11 C-6 9.68 -6 8.36 -6 7 C-3.03 7 -0.06 7 3 7 C3.49046322 12.39509537 3.49046322 12.39509537 1.125 15.3125 C-2.37065381 18.08846038 -4.54555932 18.35635525 -9 18 C-11.16015625 16.7890625 -11.16015625 16.7890625 -13 15 C-13.83407299 11.60618578 -13.61647036 8.42604768 -13 5 C-9.41850255 -0.59608977 -6.13716522 -0.60365559 0 0 Z " fill="#0B0B0B" transform="translate(191,319)"/>
<path d="M0 0 C1.65 0 3.3 0 5 0 C5 5.61 5 11.22 5 17 C3.35 17 1.7 17 0 17 C0 15.68 0 14.36 0 13 C-0.99 13 -1.98 13 -3 13 C-3 14.65 -3 16.3 -3 18 C-4.98 18 -6.96 18 -9 18 C-9 12.39 -9 6.78 -9 1 C-7.02 1 -5.04 1 -3 1 C-3 3.31 -3 5.62 -3 8 C-2.01 8 -1.02 8 0 8 C0 5.36 0 2.72 0 0 Z " fill="#1E94C9" transform="translate(266,319)"/>
<path d="M0 0 C0.66 0.33 1.32 0.66 2 1 C1.67 2.32 1.34 3.64 1 5 C-1.31 5 -3.62 5 -6 5 C-6 5.66 -6 6.32 -6 7 C-5.05125 6.95875 -4.1025 6.9175 -3.125 6.875 C0 7 0 7 2 9 C2.32378803 12.04360748 2.51045744 14.12921967 0.9375 16.8125 C-1.95899243 18.58776955 -4.64772206 18.76055158 -8 19 C-8.99 18.67 -9.98 18.34 -11 18 C-11 16.35 -11 14.7 -11 13 C-10.34 12.67 -9.68 12.34 -9 12 C-9.66 11.34 -10.32 10.68 -11 10 C-11.375 6.5625 -11.375 6.5625 -11 3 C-7.98330391 -0.74070315 -4.5375055 -0.33611152 0 0 Z " fill="#2899CC" transform="translate(338,319)"/>
<path d="M0 0 C3.96 0 7.92 0 12 0 C12 1.32 12 2.64 12 4 C9.69 4 7.38 4 5 4 C5 4.66 5 5.32 5 6 C7.31 6 9.62 6 12 6 C12 9.63 12 13.26 12 17 C8.04 17 4.08 17 0 17 C0 11.39 0 5.78 0 0 Z " fill="#2095CA" transform="translate(313,320)"/>
<path d="M0 0 C-0.625 2.375 -0.625 2.375 -2 5 C-5.125 6.3125 -5.125 6.3125 -8 7 C-8 7.99 -8 8.98 -8 10 C-6.02 10 -4.04 10 -2 10 C-1.34 11.65 -0.68 13.3 0 15 C-3.7205836 17.48038907 -5.59796571 17.46337203 -10 17 C-12.4375 15.5 -12.4375 15.5 -14 13 C-14.45468446 9.81720877 -14.71154438 8.01359974 -14 5 C-9.35773862 -0.74174434 -7.08896376 -1.18149396 0 0 Z " fill="#2497CB" transform="translate(256,320)"/>
<path d="M0 0 C2.33944736 0.28730055 4.6739143 0.61936779 7 1 C6.67 2.65 6.34 4.3 6 6 C4.02 6.66 2.04 7.32 0 8 C0 8.99 0 9.98 0 11 C2.31 11.66 4.62 12.32 7 13 C7 14.32 7 15.64 7 17 C3.88450128 18.55774936 0.3955612 18.56480622 -3 18 C-5.15553241 16.44567051 -5.88385476 15.51684634 -6.46875 12.9140625 C-6.53004233 8.42439906 -6.4994597 6.61471963 -3.5625 3 C-2.716875 2.34 -1.87125 1.68 -1 1 C-0.67 0.67 -0.34 0.34 0 0 Z " fill="#2497CB" transform="translate(304,319)"/>
<path d="M0 0 C0 1.65 0 3.3 0 5 C-1.65 5 -3.3 5 -5 5 C-5 9.29 -5 13.58 -5 18 C-6.65 18 -8.3 18 -10 18 C-10 14.04 -10 10.08 -10 6 C-11.65 6 -13.3 6 -15 6 C-15 4.35 -15 2.7 -15 1 C-9.91913204 0.15318867 -5.15171623 -0.09038099 0 0 Z " fill="#040404" transform="translate(225,319)"/>
<path d="M0 0 C1.65 0 3.3 0 5 0 C5 5.94 5 11.88 5 18 C3.35 18 1.7 18 0 18 C0 12.06 0 6.12 0 0 Z " fill="#1D94C9" transform="translate(291,319)"/>
<path d="M0 0 C1.65 0 3.3 0 5 0 C5 5.61 5 11.22 5 17 C3.35 17 1.7 17 0 17 C0 11.39 0 5.78 0 0 Z " fill="#030303" transform="translate(171,319)"/>
<path d="M0 0 C0.66 0.33 1.32 0.66 2 1 C2 4.96 2 8.92 2 13 C-2.455 12.01 -2.455 12.01 -7 11 C-7.33 9.68 -7.66 8.36 -8 7 C-7.34 6.34 -6.68 5.68 -6 5 C-4.68 5 -3.36 5 -2 5 C-1.34 3.35 -0.68 1.7 0 0 Z " fill="#F3F9FC" transform="translate(311,320)"/>
<path d="M0 0 C0.33 0 0.66 0 1 0 C1 4.62 1 9.24 1 14 C-0.32 12.68 -1.64 11.36 -3 10 C-5.66834966 9.66501699 -5.66834966 9.66501699 -8 10 C-8.625 8.125 -8.625 8.125 -9 6 C-7 4 -7 4 -4.5 3.5625 C-1.65063471 3.2234444 -1.65063471 3.2234444 0 0 Z " fill="#F4F9FC" transform="translate(256,321)"/>
<path d="M0 0 C1.65 0 3.3 0 5 0 C5.66 3.3 6.32 6.6 7 10 C9.31 10.66 11.62 11.32 14 12 C14 12.33 14 12.66 14 13 C11.36 13 8.72 13 6 13 C6 14.65 6 16.3 6 18 C5.34 18 4.68 18 4 18 C4 16.35 4 14.7 4 13 C2.02 13 0.04 13 -2 13 C-2 12.67 -2 12.34 -2 12 C-0.02 12 1.96 12 4 12 C4 10.35 4 8.7 4 7 C1.69 7 -0.62 7 -3 7 C-3 6.34 -3 5.68 -3 5 C-0.69 5 1.62 5 4 5 C4 3.68 4 2.36 4 1 C2.68 0.67 1.36 0.34 0 0 Z " fill="#EAF5FA" transform="translate(321,319)"/>
<path d="M0 0 C1.65 0 3.3 0 5 0 C5.22174933 1.45635371 5.42698698 2.91522956 5.625 4.375 C5.74101562 5.18710937 5.85703125 5.99921875 5.9765625 6.8359375 C5.98429687 7.55007813 5.99203125 8.26421875 6 9 C5.34 9.66 4.68 10.32 4 11 C4 9.68 4 8.36 4 7 C1.69 7 -0.62 7 -3 7 C-3 6.34 -3 5.68 -3 5 C-0.69 5 1.62 5 4 5 C4 3.68 4 2.36 4 1 C2.68 0.67 1.36 0.34 0 0 Z " fill="#BEE0EF" transform="translate(321,319)"/>
<path d="M0 0 C1.2065625 0.0309375 1.2065625 0.0309375 2.4375 0.0625 C2.1075 1.7125 1.7775 3.3625 1.4375 5.0625 C0.1175 5.3925 -1.2025 5.7225 -2.5625 6.0625 C-2.94468767 4.40635343 -3.27645102 2.73792976 -3.5625 1.0625 C-2.5625 0.0625 -2.5625 0.0625 0 0 Z " fill="#F5FAFC" transform="translate(281.5625,324.9375)"/>
<path d="M0 0 C0.33 0 0.66 0 1 0 C1 3.63 1 7.26 1 11 C0.01 10.34 -0.98 9.68 -2 9 C-1.34 6.03 -0.68 3.06 0 0 Z " fill="#E3E3E3" transform="translate(169,323)"/>
</svg>
